<svg width="34" height="18" viewBox="0 0 34 18" fill="none" xmlns="http://www.w3.org/2000/svg">
<path d="M32.6718 7.67181H4.54494L9.20427 3.03507C9.72416 2.51763 9.72616 1.67673 9.20872 1.15684C8.69128 0.636879 7.85031 0.634954 7.33042 1.15232L0.390699 8.05856C0.390234 8.05896 0.389902 8.05943 0.389503 8.05982C-0.129063 8.57726 -0.130723 9.42088 0.38937 9.94005C0.389835 9.94045 0.390167 9.94091 0.390566 9.94131L7.33028 16.8475C7.85011 17.3648 8.69108 17.3631 9.20859 16.843C9.72602 16.3231 9.72403 15.4822 9.20414 14.9648L4.54494 10.3281H32.6718C33.4054 10.3281 34 9.73346 34 8.99993C34 8.26641 33.4054 7.67181 32.6718 7.67181Z" fill="#E1E1E1"/>
</svg>
