<svg width="34" height="18" viewBox="0 0 34 18" fill="none" xmlns="http://www.w3.org/2000/svg">
<path d="M1.32822 7.67181H29.4551L24.7958 3.03507C24.2759 2.51763 24.2739 1.67673 24.7913 1.15684C25.3088 0.636879 26.1497 0.634954 26.6696 1.15232L33.6094 8.05856C33.6098 8.05896 33.6102 8.05943 33.6106 8.05982C34.1291 8.57726 34.1308 9.42088 33.6107 9.94005C33.6102 9.94045 33.6099 9.94091 33.6095 9.94131L26.6698 16.8475C26.1499 17.3648 25.309 17.3631 24.7915 16.843C24.274 16.3231 24.276 15.4822 24.7959 14.9648L29.4551 10.3281H1.32822C0.594699 10.3281 9.77516e-05 9.73346 9.77516e-05 8.99993C9.77516e-05 8.26641 0.594699 7.67181 1.32822 7.67181Z" fill="#E1E1E1"/>
</svg>
